<?xml version="1.0" encoding="UTF-8" standalone="no"?>
<!-- Created with Inkscape (http://www.inkscape.org/) -->

<svg
   xmlns:dc="http://purl.org/dc/elements/1.1/"
   xmlns:cc="http://creativecommons.org/ns#"
   xmlns:rdf="http://www.w3.org/1999/02/22-rdf-syntax-ns#"
   xmlns:svg="http://www.w3.org/2000/svg"
   xmlns="http://www.w3.org/2000/svg"
   xmlns:sodipodi="http://sodipodi.sourceforge.net/DTD/sodipodi-0.dtd"
   xmlns:inkscape="http://www.inkscape.org/namespaces/inkscape"
   width="100%"
   viewBox="0 0 460 240"
   id="svg2"
   version="1.1"
   inkscape:version="0.48.1 "
   sodipodi:docname="clouds.svg">
  <title
     id="title3972">clouds</title>
  <defs
     id="defs4">
    <inkscape:path-effect
       effect="spiro"
       id="path-effect3916"
       is_visible="true" />
    <inkscape:path-effect
       effect="spiro"
       id="path-effect3123"
       is_visible="true" />
    <inkscape:path-effect
       effect="spiro"
       id="path-effect3119"
       is_visible="true" />
    <inkscape:path-effect
       effect="spiro"
       id="path-effect3115"
       is_visible="true" />
    <inkscape:path-effect
       effect="spiro"
       id="path-effect3111"
       is_visible="true" />
    <inkscape:path-effect
       effect="spiro"
       id="path-effect3107"
       is_visible="true" />
    <inkscape:path-effect
       effect="spiro"
       id="path-effect3103"
       is_visible="true" />
    <inkscape:path-effect
       effect="spiro"
       id="path-effect3099"
       is_visible="true" />
    <inkscape:path-effect
       effect="spiro"
       id="path-effect3095"
       is_visible="true" />
    <inkscape:path-effect
       effect="spiro"
       id="path-effect3091"
       is_visible="true" />
    <inkscape:path-effect
       effect="spiro"
       id="path-effect3087"
       is_visible="true" />
    <inkscape:path-effect
       effect="spiro"
       id="path-effect3083"
       is_visible="true" />
    <inkscape:path-effect
       effect="spiro"
       id="path-effect3079"
       is_visible="true" />
    <inkscape:path-effect
       effect="spiro"
       id="path-effect3075"
       is_visible="true" />
    <inkscape:path-effect
       effect="spiro"
       id="path-effect3071"
       is_visible="true" />
    <inkscape:path-effect
       effect="spiro"
       id="path-effect3067"
       is_visible="true" />
    <inkscape:path-effect
       effect="spiro"
       id="path-effect3063"
       is_visible="true" />
    <inkscape:path-effect
       effect="spiro"
       id="path-effect3059"
       is_visible="true" />
    <inkscape:path-effect
       effect="spiro"
       id="path-effect3055"
       is_visible="true" />
    <inkscape:path-effect
       effect="spiro"
       id="path-effect3051"
       is_visible="true" />
    <inkscape:path-effect
       effect="spiro"
       id="path-effect3047"
       is_visible="true" />
    <inkscape:path-effect
       effect="spiro"
       id="path-effect3043"
       is_visible="true" />
    <inkscape:path-effect
       effect="spiro"
       id="path-effect3039"
       is_visible="true" />
    <inkscape:path-effect
       effect="spiro"
       id="path-effect3035"
       is_visible="true" />
    <inkscape:path-effect
       effect="spiro"
       id="path-effect3031"
       is_visible="true" />
    <inkscape:path-effect
       effect="spiro"
       id="path-effect3027"
       is_visible="true" />
    <inkscape:path-effect
       effect="spiro"
       id="path-effect3023"
       is_visible="true" />
    <inkscape:path-effect
       effect="spiro"
       id="path-effect3019"
       is_visible="true" />
    <inkscape:path-effect
       effect="spiro"
       id="path-effect3015"
       is_visible="true" />
    <inkscape:path-effect
       effect="spiro"
       id="path-effect3011"
       is_visible="true" />
    <inkscape:path-effect
       effect="spiro"
       id="path-effect3007"
       is_visible="true" />
    <inkscape:path-effect
       effect="spiro"
       id="path-effect3003"
       is_visible="true" />
    <inkscape:path-effect
       effect="spiro"
       id="path-effect2999"
       is_visible="true" />
    <inkscape:path-effect
       effect="spiro"
       id="path-effect2995"
       is_visible="true" />
    <inkscape:path-effect
       effect="spiro"
       id="path-effect2991"
       is_visible="true" />
    <inkscape:path-effect
       effect="spiro"
       id="path-effect2987"
       is_visible="true" />
    <inkscape:path-effect
       effect="spiro"
       id="path-effect3119-0"
       is_visible="true" />
    <inkscape:path-effect
       effect="spiro"
       id="path-effect3916-5"
       is_visible="true" />
    <inkscape:path-effect
       effect="spiro"
       id="path-effect3916-8"
       is_visible="true" />
  </defs>
  <sodipodi:namedview
     id="base"
     pagecolor="#ffffff"
     bordercolor="#666666"
     borderopacity="1.0"
     inkscape:pageopacity="0.0"
     inkscape:pageshadow="2"
     inkscape:zoom="0.35"
     inkscape:cx="209.43521"
     inkscape:cy="54.693671"
     inkscape:document-units="px"
     inkscape:current-layer="layer1"
     showgrid="false"
     fit-margin-top="0"
     fit-margin-left="0"
     fit-margin-right="0"
     fit-margin-bottom="0"
     inkscape:window-width="1356"
     inkscape:window-height="691"
     inkscape:window-x="2270"
     inkscape:window-y="154"
     inkscape:window-maximized="0" />
  <metadata
     id="metadata7">
    <rdf:RDF>
      <cc:Work
         rdf:about="">
        <dc:format>image/svg+xml</dc:format>
        <dc:type
           rdf:resource="http://purl.org/dc/dcmitype/StillImage" />
        <dc:title>clouds</dc:title>
        <dc:date>2014</dc:date>
        <dc:creator>
          <cc:Agent>
            <dc:title>arking</dc:title>
          </cc:Agent>
        </dc:creator>
        <dc:rights>
          <cc:Agent>
            <dc:title>arking</dc:title>
          </cc:Agent>
        </dc:rights>
        <dc:subject>
          <rdf:Bag>
            <rdf:li>cloud</rdf:li>
            <rdf:li>wolken</rdf:li>
            <rdf:li>blue</rdf:li>
            <rdf:li>sky</rdf:li>
            <rdf:li>nature</rdf:li>
          </rdf:Bag>
        </dc:subject>
      </cc:Work>
    </rdf:RDF>
  </metadata>
  <g
     inkscape:label="Ebene 1"
     inkscape:groupmode="layer"
     id="layer1"
     transform="translate(588.00664,-60.579212)">
    <path
       style="fill:#00aad4;stroke:#ffffff;stroke-width:8;stroke-linecap:butt;stroke-linejoin:miter;stroke-miterlimit:4;stroke-opacity:1;stroke-dasharray:none"
       d="m 11.929778,321.23134 11.086159,8.86893 c 2.301812,11.31602 1.45051,23.25649 -2.43342,34.13149 -3.883929,10.875 -10.7893326,20.6533 -19.73889043,27.95097 -15.54988057,12.67972 -37.29777957,17.35461 -56.68455857,12.1848 -19.386779,-5.16981 -35.91925,-20.05279 -43.090865,-38.79157 -1.751063,21.3475 -9.071853,42.21399 -21.042043,59.97622 -11.97019,17.76222 -28.56288,32.38027 -47.69209,42.01641 -18.95701,9.5494 -40.36252,14.18698 -61.57199,13.33979 -21.20946,-0.84719 -42.17689,-7.1773 -60.31184,-18.2083 -18.13494,-11.03099 -33.39809,-26.73893 -43.90375,-45.18318 -10.50565,-18.44425 -16.23103,-39.58481 -16.46879,-60.80986 -15.13513,18.20982 -36.13922,31.46286 -59.09081,37.28476 -22.95159,5.82189 -47.73321,4.18285 -69.71811,-4.61111 -21.98491,-8.79396 -41.06059,-24.69784 -53.6656,-44.74238 -12.60501,-20.04454 -18.67485,-44.12715 -17.07627,-67.75159 1.32764,-19.62037 7.89116,-38.86231 18.8304,-55.20411 10.93924,-16.3418 26.2274,-29.74345 43.86094,-38.44861 17.63354,-8.70517 37.56926,-12.69253 57.19453,-11.43954 19.62528,1.25298 38.89205,7.74326 55.27535,18.62025 -0.98911,-11.57591 1.18501,-23.40653 6.22512,-33.87445 5.04012,-10.46792 12.93275,-19.54517 22.59889,-25.99078 16.56906,-11.04864 38.33236,-13.90433 57.19096,-7.50436 18.85859,6.39998 34.38859,21.91176 40.81069,40.76283 1.8291,-25.15353 12.89602,-49.53243 30.62707,-67.46718 17.73105,-17.934752 41.98195,-29.279427 67.11294,-31.395722 25.13099,-2.116295 50.937597,5.013011 71.418262,19.729934 20.480664,14.716923 35.468746,36.901718 41.478638,61.395118 4.090146,16.66945 4.090146,34.32686 0,50.99631 7.124083,-12.72852 17.53819,-23.59737 29.950801,-31.25862 12.4126108,-7.66126 26.796601,-12.09819 41.368116,-12.76053 14.571516,-0.66234 29.298716,2.45135 42.355183,8.95492 13.056468,6.50357 24.41367,16.38281 32.66313,28.41253 10.09232,14.71706 15.44964,32.62854 15.09561,50.47011 -0.35404,17.84156 -6.41771,35.52641 -17.08592,49.83152 -10.668212,14.3051 -25.889065,25.16087 -42.88859,30.58885 -16.999524,5.42798 -35.695013,5.40177 -52.679252,-0.0738"
       id="path3914-3"
       inkscape:path-effect="#path-effect3916-5"
       inkscape:original-d="m 11.929778,321.23134 c 2.862227,5.72444 8.009911,2.71643 11.086159,8.86893 5.294455,18.11186 -10.826352,50.32715 -22.17231043,62.08246 C -27.049412,420.07576 -187.47477,168.11081 -98.931797,365.57596 c 15.956101,7.97804 -59.194533,90.54514 -68.734133,101.99263 -45.50186,54.60219 -229.59635,-36.30196 -182.25637,-110.86155 -41.94532,56.7961 -157.36086,-30.02336 -199.55079,-79.82032 -77.21451,-89.98796 118.5393,-162.33765 175.16122,-86.47201 11.31609,-19.75754 22.31427,-45.77581 28.82401,-59.86523 32.19364,-64.387196 98.00165,-63.687899 98.00165,33.25847 12.42053,-49.14467 210.63691,-95.707366 210.63691,-17.73785 0,12.00409 8.699127,42.29718 0,50.99631 74.817775,-24.52495 166.95127,-75.62772 146.33723,-6.6517 -4.81628,14.44887 -81.66508,126.84337 -97.558152,130.81663 z"
       inkscape:connector-curvature="0"
       sodipodi:nodetypes="ccccscccccsccc" />
    <path
       style="fill:#00ccff;stroke:#ffffff;stroke-width:8;stroke-linecap:butt;stroke-linejoin:miter;stroke-miterlimit:4;stroke-opacity:1;stroke-dasharray:none"
       d="m -87.150101,453.50476 11.086159,8.86893 c 1.45481,22.54747 -6.763175,45.55783 -22.172311,62.08246 -18.831537,20.19479 -48.175807,29.99614 -75.363827,25.17246 -27.18802,-4.82368 -51.36953,-24.12154 -62.10449,-49.562 -5.16754,21.25959 -16.93178,40.86667 -33.25846,55.43078 -14.62907,13.04977 -32.85215,22.02908 -52.1132,25.67845 -19.26106,3.64937 -39.5058,1.95853 -57.89463,-4.83538 -18.38883,-6.7939 -34.86991,-18.67171 -47.13156,-33.9674 -12.26165,-15.29569 -20.26929,-33.96615 -22.89976,-53.3926 -20.82595,11.89418 -46.49243,14.99704 -69.5528,8.40836 -23.06038,-6.58868 -43.21342,-22.78284 -54.61211,-43.88406 -8.19903,-15.17803 -11.91636,-32.74225 -10.56951,-49.94059 1.34684,-17.19833 7.75307,-33.96975 18.21492,-47.6864 10.46185,-13.71665 24.94219,-24.32985 41.17215,-30.17666 16.22995,-5.84681 34.15194,-6.90649 50.95781,-3.01298 -2.1559,-11.69392 -2.1559,-23.78177 0,-35.47569 3.64108,-19.74976 13.53966,-38.29781 27.91983,-52.31642 14.38017,-14.0186 33.17422,-23.44176 53.01028,-26.57885 19.83605,-3.13709 40.62073,0.0267 58.62502,8.92364 18.00429,8.89697 33.14341,23.48529 42.70125,41.14763 8.6514,-13.90253 21.36132,-25.24585 36.15429,-32.26691 14.79297,-7.02106 31.61739,-9.69536 47.85829,-7.60724 16.24091,2.08811 31.84164,8.93136 44.37744,19.46612 12.53579,10.53475 21.96291,24.72427 26.81614,40.36311 5.11507,16.48259 5.11507,34.51372 0,50.99631 11.73174,-9.17741 26.47413,-14.43908 41.365503,-14.76368 14.891377,-0.32459 29.849036,4.28971 41.969526,12.9472 12.12049,8.65749 21.336495,21.3101 25.859084,35.50181 4.522589,14.19171 4.326643,29.8437 -0.549801,43.91775 -4.376452,12.631 -12.481441,23.94454 -23.033269,32.15151 -10.551827,8.20698 -23.512328,13.27772 -36.831964,14.41034"
       id="path3914"
       inkscape:path-effect="#path-effect3916"
       inkscape:original-d="m -87.150101,453.50476 c 2.862226,5.72444 8.00991,2.71643 11.086159,8.86893 5.294454,18.11186 -10.826352,50.32715 -22.172311,62.08246 -27.893037,27.89304 -115.640957,-8.99756 -137.468317,-24.38954 15.95607,7.97804 -23.71889,43.98329 -33.25846,55.43078 -45.50184,54.60219 -227.3791,8.04266 -180.03915,-66.51693 -41.94532,56.7961 -81.97498,14.32127 -124.16491,-35.4757 -77.21453,-89.98796 43.15341,-206.68227 99.77537,-130.81663 11.31603,-19.75754 -6.50974,-21.38627 0,-35.47569 32.1936,-64.3872 182.25638,-125.77036 182.25638,-28.824 12.42058,-49.14467 155.20616,-58.01443 155.20616,19.95508 0,12.00409 8.69913,42.29718 0,50.99631 74.817782,-24.52495 129.2583527,8.62705 108.644312,77.60308 -4.816287,14.44887 -43.972161,42.58859 -59.865233,46.56185 z"
       inkscape:connector-curvature="0"
       sodipodi:nodetypes="ccccscccccsccc" />
    <path
       style="fill:#00ccff;stroke:#ffffff;stroke-width:8;stroke-linecap:butt;stroke-linejoin:miter;stroke-miterlimit:4;stroke-opacity:1;stroke-dasharray:none"
       d="m 108.11742,235.75997 3.28249,-2.62599 c 1.11387,-4.543 0.87782,-9.40817 -0.67063,-13.822 -1.54844,-4.41383 -4.40361,-8.36017 -8.11157,-11.2116 -3.213358,-2.47108 -7.05471,-4.11864 -11.059874,-4.74358 -4.005164,-0.62495 -8.165844,-0.22599 -11.979271,1.14866 -3.813427,1.37465 -7.271703,3.72215 -9.956935,6.75883 -2.685232,3.03669 -4.591858,6.75626 -5.489485,10.70925 -3.556431,-3.94666 -8.134087,-6.96518 -13.162571,-8.67944 -5.028484,-1.71426 -10.4967,-2.12047 -15.723283,-1.16802 -6.420897,1.17009 -12.448615,4.40684 -16.970763,9.11292 -4.522149,4.70608 -7.516141,10.85799 -8.4294473,17.32041 -2.3713799,-5.57647 -6.6914906,-10.30167 -12.0336564,-13.16204 -5.3421658,-2.86037 -11.6697613,-3.83629 -17.6255013,-2.71843 -5.955739,1.11786 -11.498791,4.32184 -15.440154,8.92467 -3.941364,4.60284 -6.254018,10.57297 -6.441893,16.6298 -0.267542,8.62518 3.920111,17.26956 10.854269,22.40597 6.934158,5.13642 16.423677,6.62328 24.5965498,3.8539 -0.512139,3.47631 -0.512139,7.02764 0,10.50395 1.4095697,9.56791 6.85630608,18.47467 14.7310701,24.08894 7.8747641,5.61426 18.0705951,7.85978 27.5753211,6.07314 9.504726,-1.78663 18.189247,-7.58115 23.487879,-15.67166 5.298632,-8.09051 7.139406,-18.36713 4.978499,-27.79381 l 29.146033,0.82995 c 2.203649,8.81088 8.097913,16.63643 15.958053,21.18679 7.86013,4.55037 17.58157,5.76501 26.31968,3.2885 8.7381,-2.47651 16.37662,-8.61121 20.68042,-16.60902 4.3038,-7.9978 5.21562,-17.7523 2.46865,-26.40919 -3.15629,-9.94681 -11.14967,-18.23303 -20.97653,-21.74501 -9.82686,-3.51198 -21.26156,-2.16907 -30.00735,3.52411"
       id="path3914-7"
       inkscape:path-effect="#path-effect3916-8"
       inkscape:original-d="m 108.11742,235.75997 c 0.84748,-1.69494 2.37165,-0.8043 3.28249,-2.62599 1.56763,-5.36271 -5.42279,-21.55299 -8.7822,-25.0336 -8.258808,-8.25881 -32.022734,9.31576 -38.485565,13.87316 4.724413,-2.36221 -26.061296,-6.45799 -28.885854,-9.84746 -13.472578,-16.16709 -39.4170264,4.3571 -25.4002103,26.43333 -12.4195274,-16.81669 -39.0492497,-5.07031 -51.5412047,9.674 -22.862339,26.6444 18.685705,48.72282 35.4508188,26.25987 3.3505518,5.84998 -1.9274588,6.33223 0,10.50395 17.7829872,38.59153 69.5104462,5.18105 70.7727692,-13.30339 9.847451,-1.58479 31.721742,3.40566 29.146033,0.82995 22.152693,7.26156 71.530383,1.88009 65.426803,-18.54292 -1.42605,-4.27815 -46.27812,-17.04446 -50.98388,-18.2209 z"
       inkscape:connector-curvature="0"
       sodipodi:nodetypes="ccccscccccccc" />
  </g>
</svg>
