<?xml version="1.0" encoding="UTF-8" standalone="no"?>
<!-- Created with Inkscape (http://www.inkscape.org/) -->

<svg
    xmlns:dc="http://purl.org/dc/elements/1.1/"
    xmlns:cc="http://creativecommons.org/ns#"
    xmlns:rdf="http://www.w3.org/1999/02/22-rdf-syntax-ns#"
    xmlns:svg="http://www.w3.org/2000/svg"
    xmlns="http://www.w3.org/2000/svg"
    xmlns:sodipodi="http://sodipodi.sourceforge.net/DTD/sodipodi-0.dtd"
    xmlns:inkscape="http://www.inkscape.org/namespaces/inkscape"
    viewBox="0 0 759 518"
    id="svg-sun"
    version="1.1"
    inkscape:version="0.48.5 r10040"
    sodipodi:docname="sun_spring_2015.svg">
    <defs
        id="defs4" />
    <sodipodi:namedview
        id="base"
        pagecolor="#ffffff"
        bordercolor="#666666"
        borderopacity="1.0"
        inkscape:pageopacity="0.0"
        inkscape:pageshadow="2"
        inkscape:zoom="0.7"
        inkscape:cx="305.94588"
        inkscape:cy="284.0687"
        inkscape:document-units="px"
        inkscape:current-layer="layer1"
        showgrid="false"
        inkscape:window-width="1280"
        inkscape:window-height="1005"
        inkscape:window-x="-4"
        inkscape:window-y="-4"
        inkscape:window-maximized="1" />
    <metadata
        id="metadata7">
        <rdf:RDF>
            <cc:Work
                rdf:about="">
                <dc:format>image/svg+xml</dc:format>
                <dc:type
                    rdf:resource="http://purl.org/dc/dcmitype/StillImage" />
                <dc:title></dc:title>
            </cc:Work>
        </rdf:RDF>
    </metadata>
    <g
        inkscape:label="Capa 1"
        inkscape:groupmode="layer"
        id="layer1"
        transform="translate(0,-252.36218)">
        <path
            inkscape:connector-curvature="0"
            style="fill:#ff0000;fill-opacity:1;fill-rule:evenodd;stroke:none;stroke-opacity:1;stroke-width:1.25000000000000000;stroke-miterlimit:4;stroke-dasharray:none"
            d="m 715.38467,890.82369 -169.23077,0 L 484.61543,1044.6698 361.53851,936.97754 223.07697,1013.9006 192.30774,860.05446 23.076972,813.90061 115.38466,675.43907 7.6923561,552.36215 161.53852,490.82369 l 15.38461,-169.23077 153.84616,61.53846 107.6923,-123.07692 76.92308,138.46154 169.23077,-15.38462 -30.76923,153.84616 138.46153,92.30769 -123.07692,107.6923 46.15385,153.84616 z"
            id="path2991" />
        <path
            inkscape:connector-curvature="0"
            style="fill:none;stroke:none;stroke-width:1.25000000000000000;stroke-linecap:round;stroke-linejoin:round;stroke-opacity:0;stroke-dasharray:none;stroke-miterlimit:4"
            d="m 715.38467,890.82369 -169.23077,0 L 484.61543,1044.6698 361.53851,936.97754 223.07697,1013.9006 192.30774,860.05446 23.076972,813.90061 115.38466,675.43907 7.6923561,552.36215 161.53852,490.82369 l 15.38461,-169.23077 153.84616,61.53846 107.6923,-123.07692 76.92308,138.46154 169.23077,-15.38462 -30.76923,153.84616 138.46153,92.30769 -123.07692,107.6923 46.15385,153.84616"
            id="path2993" />
        <path
            inkscape:connector-curvature="0"
            style="fill:#ff6600;fill-opacity:1;fill-rule:evenodd;stroke:none"
            d="M 715.38467,890.82369 469.23082,844.66984 484.61543,1044.6698 330.76929,860.05446 223.07697,1013.9006 207.69236,767.74676 23.076972,813.90061 192.30774,629.28523 7.6923561,552.36215 253.84621,490.82369 176.92313,321.59292 392.30774,444.66985 438.46159,260.05446 530.76928,490.82369 684.61544,383.13138 592.30775,613.90062 792.30774,629.28523 576.92313,752.36215 715.38467,890.82369 z"
            id="path2995" />
        <path
            inkscape:connector-curvature="0"
            style="fill:none;stroke:none;stroke-width:1.25000000000000000;stroke-linecap:round;stroke-linejoin:round;stroke-opacity:1;stroke-dasharray:none;stroke-miterlimit:4"
            d="M 715.38467,890.82369 469.23082,844.66984 484.61543,1044.6698 330.76929,860.05446 223.07697,1013.9006 207.69236,767.74676 23.076972,813.90061 192.30774,629.28523 7.6923561,552.36215 253.84621,490.82369 176.92313,321.59292 392.30774,444.66985 438.46159,260.05446 530.76928,490.82369 684.61544,383.13138 592.30775,613.90062 792.30774,629.28523 576.92313,752.36215 715.38467,890.82369"
            id="path2997" />
        <ellipse
            d="m 51.300446,32.53199 c 0,11.056567 -8.963119,20.019686 -20.019686,20.019686 -11.056567,0 -20.019686,-8.963119 -20.019686,-20.019686 0,-11.056567 8.963119,-20.019686 20.019686,-20.019686 11.056567,0 20.019686,8.963119 20.019686,20.019686 z"
            sodipodi:ry="20.019686"
            sodipodi:rx="20.019686"
            sodipodi:cy="32.53199"
            sodipodi:cx="31.28076"
            style="fill:#ffff00;fill-opacity:1;fill-rule:nonzero;stroke:none;stroke-width:0.10166247000000000;stroke-miterlimit:4;stroke-opacity:1;stroke-dasharray:none"
            cx="31.28076"
            cy="32.53199"
            rx="20.019686"
            ry="20.019686"
            id="ellipse2999"
            transform="matrix(11.353818,0,0,11.353818,37.151713,275.30756)" />
    </g>
</svg>
